<svg
          width="439"
          height="109"
          viewBox="0 0 439 109"
          fill="#fff"
          stroke="currentColor"
          className="h-full w-full"
          xmlns="http://www.w3.org/2000/svg"
        >
          <path d="M10.0001 20.5182C10.0001 20.6193 10.0015 20.7203 10.0045 20.8212C9.98194 21.4183 10.0464 22.0185 10.1993 22.6106C10.215 22.6714 10.2315 22.7319 10.249 22.7922C10.53 24.0599 11.0449 25.2713 11.7742 26.3619C12.9071 28.0559 14.5077 29.3841 16.3805 30.186C18.0499 32.47 18.9486 35.0618 18.9486 37.724C18.9486 40.0436 18.2664 42.3096 16.9865 44.3653C15.5323 44.8843 14.1961 45.7215 13.0833 46.8332C11.1091 48.8059 10.0001 51.4812 10.0001 54.2706L10.0001 54.2856C10 54.3178 10.0002 54.3501 10.0007 54.3823C9.99696 54.6334 10.0086 54.8848 10.0358 55.1358C10.1824 56.9112 10.7784 58.6254 11.7742 60.1144C12.9309 61.8439 14.575 63.1921 16.4987 63.9882C16.5679 64.0169 16.6374 64.0448 16.7071 64.0719C18.1668 66.2398 18.9485 68.6614 18.9485 71.1444C18.9485 73.8827 17.9977 76.5465 16.2354 78.8775C15.072 79.3965 14.0016 80.1269 13.0833 81.0443C11.8975 82.2292 11.0239 83.6676 10.5152 85.2319C10.3863 85.5351 10.2806 85.845 10.1992 86.16C10.0378 86.7853 9.97492 87.4195 10.009 88.0497C10.0031 88.1934 10.0001 88.3374 10.0001 88.4818C10.0001 90.5622 10.6175 92.5958 11.7742 94.3255C12.9309 96.0551 14.575 97.4033 16.4987 98.1994C18.4224 98.9955 20.5389 99.2037 22.5811 98.7979C24.6233 98.3921 26.499 97.3903 27.9714 95.9192C29.4435 94.4484 30.4462 92.5743 30.8523 90.5339C31.0161 89.7115 31.0799 88.877 31.0457 88.048C31.0795 87.4184 31.0166 86.7847 30.8554 86.16C30.7741 85.8456 30.6687 85.5362 30.54 85.2335C30.4549 84.9716 30.3593 84.7125 30.2533 84.4568C29.4565 82.5348 28.1071 80.8921 26.3761 79.7364C25.8601 79.3919 25.317 79.0953 24.7538 78.8486C24.3072 78.2624 23.9107 77.6531 23.5677 77.0244C22.5431 75.1459 22.0155 73.1307 22.0155 71.0955C22.0155 69.0603 22.5431 67.0452 23.5677 65.1667C23.7595 64.8151 23.9681 64.4695 24.1927 64.1307C25.6059 63.6063 26.8962 62.7823 27.9714 61.7081C29.4435 60.2372 30.4462 58.3631 30.8523 56.3227C30.9311 55.9271 30.9868 55.5286 31.0195 55.1293C31.0459 54.8826 31.0573 54.6356 31.054 54.3889L31.054 54.3844C31.0543 54.366 31.0545 54.3476 31.0545 54.3292C31.0546 54.3166 31.0546 54.3041 31.0546 54.2916C31.0574 52.9099 30.7876 51.5343 30.2533 50.2456C29.4565 48.3236 28.1071 46.6809 26.3761 45.5252C25.6333 45.0294 24.8345 44.6327 24.0001 44.3413C23.8477 44.0987 23.7036 43.8529 23.5678 43.604C22.5432 41.7255 22.0156 39.7103 22.0156 37.6752C22.0156 35.64 22.5432 33.6248 23.5678 31.7463C23.8462 31.2361 24.1597 30.7386 24.5067 30.256C25.7971 29.7296 26.9764 28.9498 27.9714 27.9556C29.3899 26.5383 30.3725 24.7466 30.8056 22.7924C30.8231 22.732 30.8397 22.6714 30.8554 22.6106C31.0083 22.0185 31.0728 21.4183 31.0503 20.8212C31.0928 19.345 30.824 17.8695 30.2533 16.4931C29.4565 14.5711 28.1071 12.9285 26.3761 11.7727C24.6448 10.617 22.6095 10 20.5274 10C17.7353 10 15.0577 11.1082 13.0833 13.0807C11.1091 15.0534 10.0001 17.7287 10.0001 20.5182Z"></path>
          <path d="M56.9679 54.5C56.9679 56.5804 57.5853 58.614 58.742 60.3437C59.8987 62.0733 61.5428 63.4215 63.4665 64.2176C65.3902 65.0137 67.5068 65.2219 69.5489 64.8161C71.5911 64.4102 73.4669 63.4085 74.9392 61.9374C76.4113 60.4666 77.414 58.5925 77.8202 56.5521C78.2263 54.5117 78.0179 52.3968 77.2211 50.475C76.4243 48.553 75.0749 46.9103 73.3439 45.7546C71.6126 44.5988 69.5773 43.9818 67.4953 43.9818C64.7032 43.9818 62.0255 45.0901 60.0511 47.0625C58.0769 49.0352 56.9679 51.7105 56.9679 54.5Z"></path>
          <path d="M34.3 37.0624C34.2959 36.9418 34.2938 36.821 34.2938 36.7C34.2938 33.9105 35.4028 31.2352 37.377 29.2625C39.3514 27.2901 42.029 26.1818 44.8211 26.1818C46.9032 26.1818 48.9385 26.7988 50.6698 27.9546C52.4008 29.1103 53.7502 30.753 54.547 32.675C55.1253 34.0698 55.3937 35.5664 55.3421 37.0624C55.3697 37.6647 55.3059 38.2704 55.1491 38.8678C55.114 39.0019 55.0742 39.1349 55.0301 39.2669C54.5666 41.1071 53.6125 42.7912 52.2651 44.1374C51.2576 45.144 50.0612 45.9309 48.7519 46.4575C48.4241 46.9114 48.1268 47.3785 47.8615 47.8571C46.8369 49.7055 46.3093 51.6883 46.3093 53.6909C46.3093 55.6935 46.8369 57.6763 47.8615 59.5247C48.1268 60.0033 48.4242 60.4705 48.752 60.9245C49.4211 61.1936 50.0641 61.532 50.6698 61.9364C52.4008 63.0921 53.7502 64.7348 54.547 66.6568C54.7442 67.1323 54.9053 67.6197 55.03 68.1148C55.0742 68.2468 55.114 68.3799 55.1491 68.514C55.3059 69.1114 55.3697 69.7171 55.3421 70.3194C55.3699 71.125 55.305 71.9351 55.146 72.7339C54.7399 74.7743 53.7372 76.6484 52.2651 78.1192C50.7927 79.5903 48.917 80.5921 46.8748 80.9979C44.8326 81.4037 42.7161 81.1955 40.7924 80.3994C38.8687 79.6033 37.2246 78.2551 36.0679 76.5255C34.9112 74.7958 34.2938 72.7622 34.2938 70.6818C34.2938 70.5607 34.2959 70.4399 34.3 70.3193C34.2724 69.7171 34.3362 69.1113 34.493 68.514C34.5281 68.38 34.5679 68.247 34.612 68.1151C35.0724 66.287 36.0205 64.5998 37.377 63.2443C38.3723 62.25 39.5463 61.4753 40.8235 60.9515C42.3971 58.7545 43.2423 56.2793 43.2423 53.739C43.2423 51.1455 42.3614 48.6199 40.7237 46.3888C38.8296 45.5893 37.2108 44.2526 36.0679 42.5437C35.3949 41.5374 34.9045 40.4282 34.612 39.2667C34.5679 39.1348 34.5281 39.0018 34.493 38.8678C34.3362 38.2705 34.2724 37.6647 34.3 37.0624Z"></path>
          <path d="M119.001 73.624C114.728 73.624 110.983 72.784 107.767 71.104C104.598 69.376 102.125 67.024 100.349 64.048C98.6203 61.072 97.7561 57.688 97.7561 53.896C97.7561 50.056 98.5963 46.672 100.277 43.744C102.005 40.768 104.358 38.44 107.334 36.76C110.359 35.08 113.792 34.24 117.633 34.24C121.378 34.24 124.715 35.056 127.643 36.688C130.572 38.32 132.877 40.624 134.557 43.6C136.238 46.576 137.078 50.08 137.078 54.112C137.078 54.496 137.054 54.928 137.006 55.408C137.006 55.888 136.982 56.344 136.934 56.776H104.886V50.8H132.181L128.652 52.672C128.7 50.464 128.244 48.52 127.283 46.84C126.323 45.16 125.003 43.84 123.322 42.88C121.69 41.92 119.794 41.44 117.633 41.44C115.424 41.44 113.48 41.92 111.8 42.88C110.167 43.84 108.871 45.184 107.911 46.912C106.998 48.592 106.542 50.584 106.542 52.888V54.328C106.542 56.632 107.07 58.672 108.127 60.448C109.183 62.224 110.671 63.592 112.592 64.552C114.512 65.512 116.721 65.992 119.217 65.992C121.378 65.992 123.322 65.656 125.051 64.984C126.779 64.312 128.316 63.256 129.66 61.816L134.485 67.36C132.757 69.376 130.572 70.936 127.932 72.04C125.339 73.096 122.362 73.624 119.001 73.624Z"></path>
          <path d="M171.965 73.12V65.344L171.461 63.688V50.08C171.461 47.44 170.668 45.4 169.084 43.96C167.5 42.472 165.099 41.728 161.882 41.728C159.722 41.728 157.585 42.064 155.473 42.736C153.408 43.408 151.656 44.344 150.215 45.544L146.687 38.992C148.751 37.408 151.2 36.232 154.032 35.464C156.913 34.648 159.89 34.24 162.963 34.24C168.532 34.24 172.829 35.584 175.854 38.272C178.926 40.912 180.463 45.016 180.463 50.584V73.12H171.965ZM159.866 73.624C156.985 73.624 154.464 73.144 152.304 72.184C150.143 71.176 148.463 69.808 147.263 68.08C146.11 66.304 145.534 64.312 145.534 62.104C145.534 59.944 146.038 58 147.047 56.272C148.103 54.544 149.807 53.176 152.16 52.168C154.512 51.16 157.633 50.656 161.522 50.656H172.685V56.632H162.17C159.098 56.632 157.033 57.136 155.977 58.144C154.921 59.104 154.392 60.304 154.392 61.744C154.392 63.376 155.041 64.672 156.337 65.632C157.633 66.592 159.434 67.072 161.738 67.072C163.947 67.072 165.915 66.568 167.644 65.56C169.42 64.552 170.692 63.064 171.461 61.096L172.973 66.496C172.109 68.752 170.548 70.504 168.292 71.752C166.083 73 163.275 73.624 159.866 73.624Z"></path>
          <path d="M207.5 73.624C204.283 73.624 201.186 73.216 198.21 72.4C195.281 71.536 192.952 70.504 191.224 69.304L194.681 62.464C196.409 63.568 198.474 64.48 200.874 65.2C203.275 65.92 205.675 66.28 208.076 66.28C210.909 66.28 212.949 65.896 214.198 65.128C215.494 64.36 216.142 63.328 216.142 62.032C216.142 60.976 215.71 60.184 214.846 59.656C213.981 59.08 212.853 58.648 211.461 58.36C210.069 58.072 208.508 57.808 206.78 57.568C205.099 57.328 203.395 57.016 201.666 56.632C199.986 56.2 198.45 55.6 197.057 54.832C195.665 54.016 194.537 52.936 193.672 51.592C192.808 50.248 192.376 48.472 192.376 46.264C192.376 43.816 193.072 41.704 194.465 39.928C195.857 38.104 197.801 36.712 200.298 35.752C202.843 34.744 205.843 34.24 209.3 34.24C211.893 34.24 214.51 34.528 217.15 35.104C219.791 35.68 221.975 36.496 223.704 37.552L220.247 44.392C218.423 43.288 216.574 42.544 214.702 42.16C212.877 41.728 211.053 41.512 209.228 41.512C206.492 41.512 204.451 41.92 203.107 42.736C201.81 43.552 201.162 44.584 201.162 45.832C201.162 46.984 201.594 47.848 202.459 48.424C203.323 49 204.451 49.456 205.843 49.792C207.236 50.128 208.772 50.416 210.453 50.656C212.181 50.848 213.885 51.16 215.566 51.592C217.246 52.024 218.783 52.624 220.175 53.392C221.615 54.112 222.768 55.144 223.632 56.488C224.496 57.832 224.928 59.584 224.928 61.744C224.928 64.144 224.208 66.232 222.768 68.008C221.375 69.784 219.383 71.176 216.79 72.184C214.198 73.144 211.101 73.624 207.5 73.624Z"></path>
          <path d="M238.747 87.592C236.875 87.592 235.002 87.28 233.13 86.656C231.257 86.032 229.697 85.168 228.449 84.064L232.049 77.44C232.962 78.256 233.994 78.904 235.146 79.384C236.299 79.864 237.475 80.104 238.675 80.104C240.308 80.104 241.628 79.696 242.636 78.88C243.644 78.064 244.581 76.696 245.445 74.776L247.677 69.736L248.398 68.656L262.945 34.672H271.587L253.583 76.216C252.382 79.096 251.038 81.376 249.55 83.056C248.109 84.736 246.477 85.912 244.653 86.584C242.876 87.256 240.908 87.592 238.747 87.592ZM246.669 74.488L229.313 34.672H238.675L252.791 67.864L246.669 74.488Z"></path>
          <path d="M296.955 73.84C293.018 73.84 289.249 73.288 285.648 72.184C282.047 71.032 279.191 69.568 277.078 67.792L280.319 60.52C282.335 62.104 284.832 63.424 287.809 64.48C290.785 65.536 293.834 66.064 296.955 66.064C299.596 66.064 301.732 65.776 303.364 65.2C304.997 64.624 306.197 63.856 306.965 62.896C307.734 61.888 308.118 60.76 308.118 59.512C308.118 57.976 307.566 56.752 306.461 55.84C305.357 54.88 303.917 54.136 302.14 53.608C300.412 53.032 298.467 52.504 296.307 52.024C294.194 51.544 292.058 50.992 289.897 50.368C287.785 49.696 285.84 48.856 284.064 47.848C282.335 46.792 280.919 45.4 279.815 43.672C278.71 41.944 278.158 39.736 278.158 37.048C278.158 34.312 278.878 31.816 280.319 29.56C281.807 27.256 284.04 25.432 287.016 24.088C290.041 22.696 293.858 22 298.467 22C301.492 22 304.493 22.384 307.469 23.152C310.446 23.92 313.039 25.024 315.247 26.464L312.295 33.736C310.038 32.392 307.71 31.408 305.309 30.784C302.908 30.112 300.604 29.776 298.395 29.776C295.803 29.776 293.69 30.088 292.058 30.712C290.473 31.336 289.297 32.152 288.529 33.16C287.809 34.168 287.449 35.32 287.449 36.616C287.449 38.152 287.977 39.4 289.033 40.36C290.137 41.272 291.554 41.992 293.282 42.52C295.058 43.048 297.027 43.576 299.187 44.104C301.348 44.584 303.484 45.136 305.597 45.76C307.758 46.384 309.702 47.2 311.43 48.208C313.207 49.216 314.623 50.584 315.68 52.312C316.784 54.04 317.336 56.224 317.336 58.864C317.336 61.552 316.592 64.048 315.103 66.352C313.663 68.608 311.43 70.432 308.406 71.824C305.381 73.168 301.564 73.84 296.955 73.84Z"></path>
          <path d="M330.22 73.12V22.72H339.583V65.2H365.941V73.12H330.22Z"></path>
          <path d="M376.933 73.12V22.72H397.675C402.14 22.72 405.957 23.44 409.125 24.88C412.342 26.32 414.815 28.384 416.543 31.072C418.272 33.76 419.136 36.952 419.136 40.648C419.136 44.344 418.272 47.536 416.543 50.224C414.815 52.864 412.342 54.904 409.125 56.344C405.957 57.736 402.14 58.432 397.675 58.432H382.119L386.296 54.184V73.12H376.933ZM409.918 73.12L397.17 54.832H407.181L420 73.12H409.918ZM386.296 55.192L382.119 50.728H397.242C401.371 50.728 404.468 49.84 406.533 48.064C408.645 46.288 409.701 43.816 409.701 40.648C409.701 37.432 408.645 34.96 406.533 33.232C404.468 31.504 401.371 30.64 397.242 30.64H382.119L386.296 26.032V55.192Z"></path>
        </svg>